Coordinates
version=1
nRows=10
nColumns=40
inDegrees=yes

Units are S.I. units (second, meters, Newtons, ...)
If the header above contains a line with 'inDegrees', this indicates whether rotational values are in degrees (yes) or radians (no).

endheader
time	pelvis_tilt	pelvis_list	pelvis_rotation	pelvis_tx	pelvis_ty	pelvis_tz	hip_flexion_r	hip_adduction_r	hip_rotation_r	knee_angle_r	knee_angle_r_beta	ankle_angle_r	subtalar_angle_r	mtp_angle_r	hip_flexion_l	hip_adduction_l	hip_rotation_l	knee_angle_l	knee_angle_l_beta	ankle_angle_l	subtalar_angle_l	mtp_angle_l	lumbar_extension	lumbar_bending	lumbar_rotation	arm_flex_r	arm_add_r	arm_rot_r	elbow_flex_r	pro_sup_r	wrist_flex_r	wrist_dev_r	arm_flex_l	arm_add_l	arm_rot_l	elbow_flex_l	pro_sup_l	wrist_flex_l	wrist_dev_l
      2.20000000	     10.79796041	     -7.91722869	     -4.93142763	     -0.26999935	      1.06731522	     -1.03515280	     13.39851184	      2.97142093	     -6.44000641	      5.48406527	      0.09571500	     -5.57141554	      0.00000000	      0.00000000	     -6.08607011	     -3.94463814	    -15.00901293	     14.65789400	      0.25582851	     -2.79420155	      0.00000000	      0.00000000	    -12.43737299	      4.26288299	      6.54067869	     81.56408705	    -24.23880836	     52.06845590	     40.39195783	     86.05245910	      0.00000000	      0.00000000	     87.75939047	    -21.96912184	     65.36477401	     43.37681110	     87.01208351	      0.00000000	      0.00000000
      2.20500000	     10.87252367	     -7.95860050	     -4.97165655	     -0.27011446	      1.06746275	     -1.03512963	     13.51944890	      3.01390205	     -6.27239709	      5.41061596	      0.09443306	     -5.60440412	      0.00000000	      0.00000000	     -6.16622687	     -3.97616080	    -15.04518127	     14.66362743	      0.25592858	     -2.85099834	      0.00000000	      0.00000000	    -12.53403767	      4.27346741	      6.55258187	     81.47801032	    -24.14827649	     51.71972248	     40.32181057	     86.13820085	      0.00000000	      0.00000000	     87.70032735	    -22.01353772	     65.15846356	     43.41845003	     87.04221041	      0.00000000	      0.00000000
      2.21000000	     10.94149495	     -7.96003076	     -4.99537018	     -0.27024603	      1.06742758	     -1.03523743	     13.70037050	      3.01241704	     -6.41299023	      5.36355439	      0.09361168	     -5.49264051	      0.00000000	      0.00000000	     -6.22412030	     -3.96136277	    -15.08244228	     14.68529869	      0.25630681	     -2.81528508	      0.00000000	      0.00000000	    -12.62466569	      4.26985468	      6.52367961	     81.59041350	    -24.11900634	     51.95416180	     40.27000746	     85.98898264	      0.00000000	      0.00000000	     87.69645194	    -22.10633620	     65.13448251	     43.55331650	     87.13212099	      0.00000000	      0.00000000
      2.21500000	     10.96857068	     -7.93536987	     -5.07732873	     -0.27038789	      1.06734024	     -1.03524861	     13.96744667	      3.00763337	     -6.50926357	      5.40457347	      0.09432760	     -5.40517993	      0.00000000	      0.00000000	     -6.21909315	     -3.92550618	    -15.23561267	     14.74839090	      0.25740798	     -2.83656291	      0.00000000	      0.00000000	    -12.66055696	      4.21106560	      6.58177025	     81.64278018	    -24.15192227	     52.17535293	     40.26417184	     85.50877761	      0.00000000	      0.00000000	     87.74095951	    -22.09127743	     65.24228425	     43.50614063	     87.13995864	      0.00000000	      0.00000000
      2.22000000	     11.04573671	     -7.96800397	     -5.06958427	     -0.27050966	      1.06730618	     -1.03538318	     14.09498186	      3.03018948	     -6.61610245	      5.28018459	      0.09215661	     -5.47457503	      0.00000000	      0.00000000	     -6.27566303	     -3.94984823	    -15.19686126	     14.79413067	      0.25820629	     -2.75212309	      0.00000000	      0.00000000	    -12.75802693	      4.23426393	      6.57055151	     81.65876602	    -24.14349941	     52.02723909	     40.20881871	     85.94160721	      0.00000000	      0.00000000	     87.74535427	    -22.09325321	     65.20356244	     43.52845829	     87.13136493	      0.00000000	      0.00000000
      2.22500000	     11.09768416	     -8.01908289	     -5.10271549	     -0.27063655	      1.06730118	     -1.03544945	     14.24900530	      3.08862385	     -6.68311093	      5.17623227	      0.09034230	     -5.48616608	      0.00000000	      0.00000000	     -6.30274369	     -3.99860018	    -15.16749764	     14.87075515	      0.25954364	     -2.70743970	      0.00000000	      0.00000000	    -12.82887849	      4.24541135	      6.65137839	     81.59734387	    -24.25307975	     51.80340836	     40.27898199	     86.31120347	      0.00000000	      0.00000000	     87.77063689	    -21.99484193	     65.26267525	     43.47525595	     86.95255964	      0.00000000	      0.00000000
      2.23000000	     11.10165031	     -8.01180701	     -5.14172579	     -0.27068736	      1.06720237	     -1.03553542	     14.53416541	      3.07703682	     -6.85927653	      5.24626512	      0.09156460	     -5.37491928	      0.00000000	      0.00000000	     -6.26474622	     -4.00217600	    -15.24438885	     15.00988107	      0.26197185	     -2.53586297	      0.00000000	      0.00000000	    -12.82795774	      4.23478913	      6.65509496	     81.66783089	    -24.23908160	     52.06885613	     40.18084513	     86.05514614	      0.00000000	      0.00000000	     87.76861544	    -22.04340710	     65.31978608	     43.54889054	     87.06852285	      0.00000000	      0.00000000
      2.23500000	     11.18446073	     -8.06144786	     -5.18697220	     -0.27075997	      1.06726910	     -1.03556879	     14.61298883	      3.14210603	     -6.81399342	      5.04896560	      0.08812107	     -5.54764877	      0.00000000	      0.00000000	     -6.34464801	     -4.03863747	    -15.25793722	     15.03363774	      0.26238648	     -2.53131201	      0.00000000	      0.00000000	    -12.93573029	      4.25893753	      6.69839233	     81.62823488	    -24.25541018	     51.87583101	     40.25136552	     86.34211623	      0.00000000	      0.00000000	     87.75366730	    -22.00214455	     65.24509569	     43.45075973	     86.92522234	      0.00000000	      0.00000000
      2.24000000	     11.29586506	     -8.02639117	     -5.27795001	     -0.27073719	      1.06735621	     -1.03560189	     14.74228625	      3.11680556	     -6.88157654	      5.06209603	      0.08835024	     -5.48721902	      0.00000000	      0.00000000	     -6.47088322	     -3.96893061	    -15.36702305	     15.04353875	      0.26255928	     -2.54893820	      0.00000000	      0.00000000	    -13.03669422	      4.17167517	      6.81331452	     81.63113509	    -24.31055184	     51.91923586	     40.17830520	     86.20325057	      0.00000000	      0.00000000	     87.75943688	    -21.96692434	     65.30177071	     43.51260076	     86.95146730	      0.00000000	      0.00000000
      2.24500000	     11.32121121	     -8.07394343	     -5.29400533	     -0.27096341	      1.06721826	     -1.03572662	     14.95410942	      3.16026760	     -6.96161780	      5.00849959	      0.08741481	     -5.54995550	      0.00000000	      0.00000000	     -6.44082249	     -4.02036464	    -15.35586281	     15.16424877	      0.26466607	     -2.41836089	      0.00000000	      0.00000000	    -13.08369149	      4.20482881	      6.85054697	     81.64590851	    -24.36004851	     51.88283686	     40.16832142	     86.30841085	      0.00000000	      0.00000000	     87.76584808	    -21.89743057	     65.24916926	     43.45165200	     86.94155838	      0.00000000	      0.00000000
